<svg xmlns="http://www.w3.org/2000/svg" xmlns:xlink="http://www.w3.org/1999/xlink" width="500" zoomAndPan="magnify" viewBox="0 0 375 374.999991" height="500" preserveAspectRatio="xMidYMid meet" version="1.0"><defs><g/><clipPath id="0971975f95"><path d="M 103 151 L 127 151 L 127 205 L 103 205 Z M 103 151 " clip-rule="nonzero"/></clipPath><clipPath id="19c363bc58"><path d="M 88.542969 132.445312 L 155.484375 145.734375 L 140.441406 221.507812 L 73.5 208.214844 Z M 88.542969 132.445312 " clip-rule="nonzero"/></clipPath><clipPath id="e9a92115c4"><path d="M 88.542969 132.445312 L 155.484375 145.734375 L 140.441406 221.507812 L 73.5 208.214844 Z M 88.542969 132.445312 " clip-rule="nonzero"/></clipPath><clipPath id="803a8e6fad"><path d="M 90 180 L 124 180 L 124 210 L 90 210 Z M 90 180 " clip-rule="nonzero"/></clipPath><clipPath id="4dec7422f6"><path d="M 88.542969 132.445312 L 155.484375 145.734375 L 140.441406 221.507812 L 73.5 208.214844 Z M 88.542969 132.445312 " clip-rule="nonzero"/></clipPath><clipPath id="84caa4d5a6"><path d="M 88.542969 132.445312 L 155.484375 145.734375 L 140.441406 221.507812 L 73.5 208.214844 Z M 88.542969 132.445312 " clip-rule="nonzero"/></clipPath><clipPath id="2bdabd3e01"><path d="M 114 190 L 120 190 L 120 204 L 114 204 Z M 114 190 " clip-rule="nonzero"/></clipPath><clipPath id="5e5add4e9b"><path d="M 88.542969 132.445312 L 155.484375 145.734375 L 140.441406 221.507812 L 73.5 208.214844 Z M 88.542969 132.445312 " clip-rule="nonzero"/></clipPath><clipPath id="8eac179408"><path d="M 88.542969 132.445312 L 155.484375 145.734375 L 140.441406 221.507812 L 73.5 208.214844 Z M 88.542969 132.445312 " clip-rule="nonzero"/></clipPath><clipPath id="7e2953e698"><path d="M 103 186 L 114 186 L 114 190 L 103 190 Z M 103 186 " clip-rule="nonzero"/></clipPath><clipPath id="0c8b5835d7"><path d="M 88.542969 132.445312 L 155.484375 145.734375 L 140.441406 221.507812 L 73.5 208.214844 Z M 88.542969 132.445312 " clip-rule="nonzero"/></clipPath><clipPath id="1460fa2f02"><path d="M 88.542969 132.445312 L 155.484375 145.734375 L 140.441406 221.507812 L 73.5 208.214844 Z M 88.542969 132.445312 " clip-rule="nonzero"/></clipPath><clipPath id="6f957015db"><path d="M 94 186 L 98 186 L 98 192 L 94 192 Z M 94 186 " clip-rule="nonzero"/></clipPath><clipPath id="9667e62468"><path d="M 88.542969 132.445312 L 155.484375 145.734375 L 140.441406 221.507812 L 73.5 208.214844 Z M 88.542969 132.445312 " clip-rule="nonzero"/></clipPath><clipPath id="ca70fc3cda"><path d="M 88.542969 132.445312 L 155.484375 145.734375 L 140.441406 221.507812 L 73.5 208.214844 Z M 88.542969 132.445312 " clip-rule="nonzero"/></clipPath><clipPath id="4798a553e2"><path d="M 93 193 L 95 193 L 95 196 L 93 196 Z M 93 193 " clip-rule="nonzero"/></clipPath><clipPath id="78404e5fd7"><path d="M 88.542969 132.445312 L 155.484375 145.734375 L 140.441406 221.507812 L 73.5 208.214844 Z M 88.542969 132.445312 " clip-rule="nonzero"/></clipPath><clipPath id="06ff9adef0"><path d="M 88.542969 132.445312 L 155.484375 145.734375 L 140.441406 221.507812 L 73.5 208.214844 Z M 88.542969 132.445312 " clip-rule="nonzero"/></clipPath><clipPath id="4ec8b2f6a2"><path d="M 105 191 L 137 191 L 137 218 L 105 218 Z M 105 191 " clip-rule="nonzero"/></clipPath><clipPath id="0735edf7b3"><path d="M 88.542969 132.445312 L 155.484375 145.734375 L 140.441406 221.507812 L 73.5 208.214844 Z M 88.542969 132.445312 " clip-rule="nonzero"/></clipPath><clipPath id="66c37a1da0"><path d="M 88.542969 132.445312 L 155.484375 145.734375 L 140.441406 221.507812 L 73.5 208.214844 Z M 88.542969 132.445312 " clip-rule="nonzero"/></clipPath><clipPath id="0a4f0cb515"><path d="M 81 135 L 151 135 L 151 196 L 81 196 Z M 81 135 " clip-rule="nonzero"/></clipPath><clipPath id="a40f82da70"><path d="M 88.542969 132.445312 L 155.484375 145.734375 L 140.441406 221.507812 L 73.5 208.214844 Z M 88.542969 132.445312 " clip-rule="nonzero"/></clipPath><clipPath id="010a072092"><path d="M 88.542969 132.445312 L 155.484375 145.734375 L 140.441406 221.507812 L 73.5 208.214844 Z M 88.542969 132.445312 " clip-rule="nonzero"/></clipPath><clipPath id="2e558b4629"><path d="M 128 195 L 133 195 L 133 212 L 128 212 Z M 128 195 " clip-rule="nonzero"/></clipPath><clipPath id="48975c136c"><path d="M 88.542969 132.445312 L 155.484375 145.734375 L 140.441406 221.507812 L 73.5 208.214844 Z M 88.542969 132.445312 " clip-rule="nonzero"/></clipPath><clipPath id="36f1ff2a4a"><path d="M 88.542969 132.445312 L 155.484375 145.734375 L 140.441406 221.507812 L 73.5 208.214844 Z M 88.542969 132.445312 " clip-rule="nonzero"/></clipPath><clipPath id="bda1d9a45b"><path d="M 116 195 L 122 195 L 122 199 L 116 199 Z M 116 195 " clip-rule="nonzero"/></clipPath><clipPath id="744cb403c8"><path d="M 88.542969 132.445312 L 155.484375 145.734375 L 140.441406 221.507812 L 73.5 208.214844 Z M 88.542969 132.445312 " clip-rule="nonzero"/></clipPath><clipPath id="65f4cf2224"><path d="M 88.542969 132.445312 L 155.484375 145.734375 L 140.441406 221.507812 L 73.5 208.214844 Z M 88.542969 132.445312 " clip-rule="nonzero"/></clipPath><clipPath id="27650730b9"><path d="M 123 197 L 125 197 L 125 199 L 123 199 Z M 123 197 " clip-rule="nonzero"/></clipPath><clipPath id="d88f58faf6"><path d="M 88.542969 132.445312 L 155.484375 145.734375 L 140.441406 221.507812 L 73.5 208.214844 Z M 88.542969 132.445312 " clip-rule="nonzero"/></clipPath><clipPath id="bd063d8d11"><path d="M 88.542969 132.445312 L 155.484375 145.734375 L 140.441406 221.507812 L 73.5 208.214844 Z M 88.542969 132.445312 " clip-rule="nonzero"/></clipPath><clipPath id="22fa29f736"><path d="M 107 195 L 114 195 L 114 206 L 107 206 Z M 107 195 " clip-rule="nonzero"/></clipPath><clipPath id="6f8de7f031"><path d="M 88.542969 132.445312 L 155.484375 145.734375 L 140.441406 221.507812 L 73.5 208.214844 Z M 88.542969 132.445312 " clip-rule="nonzero"/></clipPath><clipPath id="7fbebd7840"><path d="M 88.542969 132.445312 L 155.484375 145.734375 L 140.441406 221.507812 L 73.5 208.214844 Z M 88.542969 132.445312 " clip-rule="nonzero"/></clipPath><clipPath id="c666c8e5b5"><path d="M 108 206 L 111 206 L 111 209 L 108 209 Z M 108 206 " clip-rule="nonzero"/></clipPath><clipPath id="f4f4957c15"><path d="M 88.542969 132.445312 L 155.484375 145.734375 L 140.441406 221.507812 L 73.5 208.214844 Z M 88.542969 132.445312 " clip-rule="nonzero"/></clipPath><clipPath id="8135c5fc86"><path d="M 88.542969 132.445312 L 155.484375 145.734375 L 140.441406 221.507812 L 73.5 208.214844 Z M 88.542969 132.445312 " clip-rule="nonzero"/></clipPath></defs><g fill="#a5202a" fill-opacity="1"><g transform="translate(167.705458, 249.06643)"><g><path d="M 5.890625 -1.828125 C 5.890625 -1.191406 5.632812 -0.71875 5.125 -0.40625 C 4.707031 -0.132812 4.164062 0 3.5 0 L 0.265625 0 L 0.265625 -0.25 L 1.1875 -0.25 L 1.1875 -6.4375 L 0.265625 -6.4375 L 0.265625 -6.6875 L 3.421875 -6.6875 C 3.972656 -6.6875 4.460938 -6.5625 4.890625 -6.3125 C 5.390625 -6.039062 5.640625 -5.640625 5.640625 -5.109375 C 5.640625 -4.347656 5.160156 -3.851562 4.203125 -3.625 C 4.648438 -3.519531 5.039062 -3.316406 5.375 -3.015625 C 5.71875 -2.671875 5.890625 -2.273438 5.890625 -1.828125 Z M 4.53125 -5.1875 C 4.53125 -6.019531 4.160156 -6.4375 3.421875 -6.4375 L 2.3125 -6.4375 L 2.3125 -3.734375 L 3.421875 -3.734375 C 3.828125 -3.734375 4.117188 -3.847656 4.296875 -4.078125 C 4.453125 -4.265625 4.53125 -4.582031 4.53125 -5.03125 Z M 4.734375 -1.9375 C 4.734375 -2.96875 4.296875 -3.484375 3.421875 -3.484375 L 2.3125 -3.484375 L 2.3125 -0.25 L 3.421875 -0.25 C 3.898438 -0.25 4.238281 -0.367188 4.4375 -0.609375 C 4.632812 -0.847656 4.734375 -1.210938 4.734375 -1.703125 Z M 4.734375 -1.9375 "/></g></g></g><g fill="#a5202a" fill-opacity="1"><g transform="translate(174.079588, 249.06643)"><g><path d="M 4.34375 -3.515625 L 4.34375 -0.25 L 5.359375 -0.25 L 5.359375 0 L 2.203125 0 L 2.203125 -0.25 L 3.21875 -0.25 L 3.21875 -3.28125 L 1.171875 -6.4375 L 0.296875 -6.4375 L 0.296875 -6.6875 L 3.359375 -6.6875 L 3.359375 -6.4375 L 2.421875 -6.4375 L 4.125 -3.796875 L 5.703125 -6.4375 L 4.703125 -6.4375 L 4.703125 -6.6875 L 6.96875 -6.6875 L 6.96875 -6.4375 L 6.09375 -6.4375 Z M 4.34375 -3.515625 "/></g></g></g><g fill="#a5202a" fill-opacity="1"><g transform="translate(181.136655, 249.06643)"><g/></g></g><g fill="#a5202a" fill-opacity="1"><g transform="translate(183.361387, 249.06643)"><g><path d="M 6.171875 -0.359375 C 6.171875 -0.117188 6.050781 0 5.8125 0 L 0.265625 0 L 0.265625 -0.25 L 1.1875 -0.25 L 1.1875 -6.4375 L 0.265625 -6.4375 L 0.265625 -6.6875 L 3.328125 -6.6875 L 3.328125 -6.4375 L 2.328125 -6.4375 L 2.328125 -0.25 L 4.46875 -0.25 C 4.90625 -0.25 5.234375 -0.394531 5.453125 -0.6875 C 5.609375 -0.925781 5.75 -1.320312 5.875 -1.875 C 5.90625 -2.03125 5.960938 -2.109375 6.046875 -2.109375 C 6.128906 -2.109375 6.171875 -2.015625 6.171875 -1.828125 Z M 6.171875 -0.359375 "/></g></g></g><g fill="#a5202a" fill-opacity="1"><g transform="translate(189.745862, 249.06643)"><g><path d="M 3.703125 -0.25 L 4.78125 -0.25 L 4.140625 -2.046875 L 2.046875 -2.046875 L 1.40625 -0.25 L 2.65625 -0.25 L 2.65625 0 L 0.1875 0 L 0.1875 -0.25 L 1.125 -0.25 L 3.453125 -6.78125 L 3.640625 -6.78125 L 5.984375 -0.25 L 6.9375 -0.25 L 6.9375 0 L 3.703125 0 Z M 2.140625 -2.296875 L 4.046875 -2.296875 L 3.09375 -4.921875 Z M 2.140625 -2.296875 "/></g></g></g><g fill="#a5202a" fill-opacity="1"><g transform="translate(196.792584, 249.06643)"><g><path d="M 6.6875 -0.359375 C 6.6875 -0.242188 6.519531 -0.132812 6.1875 -0.03125 C 5.925781 0.0390625 5.6875 0.078125 5.46875 0.078125 C 5.113281 0.078125 4.851562 -0.0078125 4.6875 -0.1875 C 4.519531 -0.375 4.421875 -0.644531 4.390625 -1 C 4.378906 -1.101562 4.367188 -1.238281 4.359375 -1.40625 C 4.347656 -1.582031 4.332031 -1.789062 4.3125 -2.03125 C 4.21875 -2.914062 3.84375 -3.359375 3.1875 -3.359375 L 2.34375 -3.359375 L 2.34375 -0.25 L 3.265625 -0.25 L 3.265625 0 L 0.296875 0 L 0.296875 -0.25 L 1.21875 -0.25 L 1.21875 -6.4375 L 0.296875 -6.4375 L 0.296875 -6.6875 L 3.34375 -6.6875 C 3.9375 -6.6875 4.445312 -6.554688 4.875 -6.296875 C 5.375 -6.003906 5.625 -5.578125 5.625 -5.015625 C 5.625 -4.191406 5.109375 -3.664062 4.078125 -3.4375 C 4.734375 -3.257812 5.164062 -2.976562 5.375 -2.59375 C 5.507812 -2.332031 5.585938 -1.84375 5.609375 -1.125 C 5.628906 -0.78125 5.648438 -0.566406 5.671875 -0.484375 C 5.722656 -0.335938 5.851562 -0.265625 6.0625 -0.265625 C 6.226562 -0.265625 6.378906 -0.3125 6.515625 -0.40625 C 6.566406 -0.414062 6.597656 -0.421875 6.609375 -0.421875 C 6.660156 -0.421875 6.6875 -0.398438 6.6875 -0.359375 Z M 4.515625 -5.1875 C 4.515625 -6.019531 4.125 -6.4375 3.34375 -6.4375 L 2.34375 -6.4375 L 2.34375 -3.609375 L 3.34375 -3.609375 C 4.125 -3.609375 4.515625 -4.019531 4.515625 -4.84375 Z M 4.515625 -5.1875 "/></g></g></g><g fill="#a5202a" fill-opacity="1"><g transform="translate(203.48748, 249.06643)"><g><path d="M 0.421875 -0.25 L 1.328125 -0.25 L 1.328125 -6.4375 L 0.421875 -6.4375 L 0.421875 -6.6875 L 3.375 -6.6875 L 3.375 -6.4375 L 2.453125 -6.4375 L 2.453125 -0.25 L 3.375 -0.25 L 3.375 0 L 0.421875 0 Z M 0.421875 -0.25 "/></g></g></g><g fill="#a5202a" fill-opacity="1"><g transform="translate(44.511717, 222.029611)"><g><path d="M 119.140625 -26.75 C 119.503906 -26.613281 119.6875 -26.3125 119.6875 -25.84375 C 119.6875 -25.375 119.570312 -24.863281 119.34375 -24.3125 C 119.113281 -23.757812 118.945312 -23.285156 118.84375 -22.890625 C 114.90625 -13.703125 110.25 -4.898438 104.875 3.515625 C 99.507812 11.941406 93.070312 19.363281 85.5625 25.78125 C 81.570312 29.082031 77.363281 32.066406 72.9375 34.734375 C 68.519531 37.410156 63.765625 39.65625 58.671875 41.46875 C 55.453125 42.625 52.519531 43.429688 49.875 43.890625 C 47.238281 44.359375 44.164062 44.566406 40.65625 44.515625 C 38.675781 44.566406 36.691406 44.515625 34.703125 44.359375 C 32.710938 44.210938 30.695312 43.867188 28.65625 43.328125 C 19.25 40.640625 12.253906 34.914062 7.671875 26.15625 C 6.117188 23.101562 4.90625 20.007812 4.03125 16.875 C 3.15625 13.738281 2.503906 10.585938 2.078125 7.421875 C 1.003906 -1.054688 0.960938 -9.394531 1.953125 -17.59375 C 3.273438 -28.988281 5.582031 -39.9375 8.875 -50.4375 C 12.175781 -60.9375 16.34375 -71.03125 21.375 -80.71875 C 26.851562 -91.488281 33.59375 -101.351562 41.59375 -110.3125 C 47.132812 -116.53125 53.453125 -121.84375 60.546875 -126.25 C 65.828125 -129.613281 71.703125 -131.820312 78.171875 -132.875 C 81.035156 -133.382812 83.921875 -133.253906 86.828125 -132.484375 C 91.378906 -131.378906 94.273438 -128.582031 95.515625 -124.09375 C 96.390625 -120.445312 96.390625 -115.929688 95.515625 -110.546875 C 94.640625 -105.160156 93.253906 -99.539062 91.359375 -93.6875 C 89.472656 -87.84375 87.375 -82.414062 85.0625 -77.40625 C 82.757812 -72.40625 80.648438 -68.421875 78.734375 -65.453125 C 78.160156 -64.691406 77.472656 -64.234375 76.671875 -64.078125 C 75.867188 -63.921875 74.972656 -63.972656 73.984375 -64.234375 C 73.472656 -64.347656 73.0625 -64.625 72.75 -65.0625 C 72.4375 -65.5 72.378906 -65.898438 72.578125 -66.265625 C 72.753906 -66.890625 72.992188 -67.484375 73.296875 -68.046875 C 73.441406 -68.359375 73.597656 -68.695312 73.765625 -69.0625 C 74.472656 -70.757812 75.296875 -72.625 76.234375 -74.65625 C 78.265625 -79.207031 80.378906 -84.1875 82.578125 -89.59375 C 84.785156 -95.007812 86.578125 -100.398438 87.953125 -105.765625 C 89.328125 -111.140625 89.828125 -116.003906 89.453125 -120.359375 C 88.773438 -127.710938 85.046875 -130.457031 78.265625 -128.59375 C 75.265625 -127.769531 72.476562 -126.679688 69.90625 -125.328125 C 67.332031 -123.972656 64.863281 -122.445312 62.5 -120.75 C 57.769531 -117.320312 53.460938 -113.523438 49.578125 -109.359375 C 45.691406 -105.191406 42.140625 -100.75 38.921875 -96.03125 C 22.984375 -72.851562 13.191406 -46.582031 9.546875 -17.21875 C 8.460938 -8.707031 8.488281 -0.03125 9.625 8.8125 C 10.25 13.90625 11.734375 18.910156 14.078125 23.828125 C 16.453125 28.660156 19.269531 32.351562 22.53125 34.90625 C 25.800781 37.46875 29.191406 39.148438 32.703125 39.953125 C 36.222656 40.765625 39.539062 40.984375 42.65625 40.609375 C 48.101562 39.992188 53.234375 38.566406 58.046875 36.328125 C 67.597656 31.984375 75.40625 27.347656 81.46875 22.421875 C 87.53125 17.503906 92.613281 12.335938 96.71875 6.921875 C 100.832031 1.515625 104.6875 -4.140625 108.28125 -10.046875 C 109.71875 -12.390625 110.960938 -14.648438 112.015625 -16.828125 C 113.253906 -19.398438 114.878906 -22.269531 116.890625 -25.4375 C 117.566406 -26.425781 118.316406 -26.863281 119.140625 -26.75 Z M 119.140625 -26.75 "/></g></g></g><g fill="#a5202a" fill-opacity="1"><g transform="translate(158.595686, 222.029611)"><g><path d="M 41.546875 -20.578125 C 43.953125 -23.253906 45.21875 -24.28125 45.34375 -23.65625 C 45.46875 -23.03125 44.953125 -21.582031 43.796875 -19.3125 C 42.640625 -17.039062 40.84375 -15.097656 38.40625 -13.484375 C 36.625 -12.378906 35.085938 -11.632812 33.796875 -11.25 C 32.515625 -10.875 31.351562 -10.65625 30.3125 -10.59375 C 28.25 -10.476562 26.671875 -11.070312 25.578125 -12.375 C 24.492188 -13.675781 23.738281 -15.351562 23.3125 -17.40625 C 22.894531 -19.457031 22.585938 -21.566406 22.390625 -23.734375 C 22.191406 -25.117188 22.003906 -26.363281 21.828125 -27.46875 C 21.578125 -29.21875 21.078125 -30.1875 20.328125 -30.375 C 19.578125 -30.5625 18.425781 -29.4375 16.875 -27 C 15.257812 -24.40625 13.84375 -21.535156 12.625 -18.390625 C 11.414062 -15.253906 10.34375 -12.191406 9.40625 -9.203125 C 9.351562 -9.085938 9.300781 -8.929688 9.25 -8.734375 C 9.050781 -8.304688 8.894531 -7.867188 8.78125 -7.421875 C 8.40625 -6.171875 7.96875 -4.953125 7.46875 -3.765625 C 7.039062 -2.785156 6.3125 -2.140625 5.28125 -1.828125 C 4.25 -1.515625 3.164062 -1.582031 2.03125 -2.03125 C 1.300781 -2.34375 0.804688 -2.867188 0.546875 -3.609375 C 0.179688 -4.734375 0.0546875 -5.875 0.171875 -7.03125 C 0.171875 -7.175781 0.171875 -7.273438 0.171875 -7.328125 C 0.421875 -12.253906 0.460938 -20.4375 0.296875 -31.875 C 0.148438 -41.007812 0.078125 -50.832031 0.078125 -61.34375 C 0.078125 -71.863281 0.347656 -81.785156 0.890625 -91.109375 C 1.429688 -100.429688 2.347656 -107.894531 3.640625 -113.5 C 4.210938 -115.53125 5.144531 -117.359375 6.4375 -118.984375 C 7.738281 -120.609375 9.179688 -121.5 10.765625 -121.65625 C 12.347656 -121.8125 13.832031 -120.726562 15.21875 -118.40625 C 16.15625 -116.4375 16.734375 -114.332031 16.953125 -112.09375 C 17.578125 -105.476562 17.019531 -95.316406 15.28125 -81.609375 C 13.539062 -67.898438 11.722656 -55.898438 9.828125 -45.609375 C 7.941406 -35.328125 7 -26.738281 7 -19.84375 C 7.613281 -20.882812 8.234375 -22 8.859375 -23.1875 C 9.734375 -24.9375 10.710938 -26.679688 11.796875 -28.421875 C 12.890625 -30.160156 14.175781 -31.640625 15.65625 -32.859375 C 17.144531 -34.078125 18.953125 -34.835938 21.078125 -35.140625 C 22.515625 -35.367188 23.972656 -35.269531 25.453125 -34.84375 C 26.941406 -34.425781 27.941406 -33.394531 28.453125 -31.75 C 29.066406 -28.894531 29.273438 -25.859375 29.078125 -22.640625 C 29.078125 -19.222656 29.671875 -17.0625 30.859375 -16.15625 C 32.046875 -15.25 33.519531 -15.09375 35.28125 -15.6875 C 37.050781 -16.28125 39.140625 -17.910156 41.546875 -20.578125 Z M 9.875 -108.234375 C 9.5625 -104.703125 9.207031 -98.800781 8.8125 -90.53125 C 8.414062 -82.269531 8.078125 -73.984375 7.796875 -65.671875 C 7.515625 -57.359375 7.375 -50.445312 7.375 -44.9375 C 8.050781 -49.914062 8.867188 -56.394531 9.828125 -64.375 C 10.796875 -72.363281 11.65625 -80.582031 12.40625 -89.03125 C 13.15625 -97.476562 13.53125 -103.820312 13.53125 -108.0625 C 13.46875 -110.300781 13.304688 -111.960938 13.046875 -113.046875 C 12.796875 -114.140625 12.375 -114.53125 11.78125 -114.21875 C 11.1875 -113.90625 10.734375 -113.113281 10.421875 -111.84375 C 10.117188 -110.570312 9.9375 -109.367188 9.875 -108.234375 Z M 9.875 -108.234375 "/></g></g></g><g fill="#a5202a" fill-opacity="1"><g transform="translate(201.626246, 222.029611)"><g><path d="M 40.875 -20.484375 C 41.488281 -20.847656 42.09375 -21.128906 42.6875 -21.328125 C 43.28125 -21.523438 43.671875 -21.507812 43.859375 -21.28125 C 44.046875 -21.050781 43.800781 -20.539062 43.125 -19.75 C 41 -17.320312 38.457031 -15.097656 35.5 -13.078125 C 32.550781 -11.054688 29.519531 -9.351562 26.40625 -7.96875 C 23.976562 -6.863281 21.414062 -5.984375 18.71875 -5.328125 C 16.019531 -4.679688 13.347656 -4.539062 10.703125 -4.90625 C 8.054688 -5.28125 5.644531 -6.457031 3.46875 -8.4375 C 0.164062 -11.488281 -1.203125 -15.21875 -0.640625 -19.625 C -0.160156 -23.132812 1.203125 -26.109375 3.453125 -28.546875 C 5.703125 -30.992188 8.535156 -32.65625 11.953125 -33.53125 C 14.804688 -34.15625 17.660156 -34.226562 20.515625 -33.75 C 21.816406 -33.550781 23.003906 -33.113281 24.078125 -32.4375 C 25.066406 -31.664062 25.609375 -30.769531 25.703125 -29.75 C 25.804688 -28.738281 25.421875 -27.769531 24.546875 -26.84375 C 22.734375 -25.226562 20.640625 -24.265625 18.265625 -23.953125 C 15.609375 -23.503906 12.941406 -23.222656 10.265625 -23.109375 C 8.960938 -23.109375 8.046875 -22.835938 7.515625 -22.296875 C 6.992188 -21.765625 6.691406 -20.847656 6.609375 -19.546875 C 6.191406 -16.015625 7.320312 -13.128906 10 -10.890625 C 11.664062 -9.566406 13.691406 -9.003906 16.078125 -9.203125 C 18.472656 -9.398438 21.015625 -10.039062 23.703125 -11.125 C 26.390625 -12.21875 29.015625 -13.488281 31.578125 -14.9375 C 34.148438 -16.394531 36.46875 -17.773438 38.53125 -19.078125 C 39.414062 -19.640625 40.195312 -20.109375 40.875 -20.484375 Z M 11.40625 -28.03125 C 11.40625 -27.96875 11.363281 -27.9375 11.28125 -27.9375 C 11.164062 -27.820312 11.015625 -27.6875 10.828125 -27.53125 C 10.648438 -27.375 10.484375 -27.21875 10.328125 -27.0625 C 10.171875 -26.914062 10.09375 -26.8125 10.09375 -26.75 C 10.144531 -26.550781 10.648438 -26.5 11.609375 -26.59375 C 12.578125 -26.695312 13.640625 -26.867188 14.796875 -27.109375 C 15.953125 -27.347656 16.914062 -27.671875 17.6875 -28.078125 C 18.46875 -28.492188 18.707031 -28.984375 18.40625 -29.546875 C 18.257812 -29.722656 18.078125 -29.875 17.859375 -30 C 17.648438 -30.125 17.421875 -30.210938 17.171875 -30.265625 C 16.035156 -30.265625 15 -30.046875 14.0625 -29.609375 C 13.132812 -29.171875 12.25 -28.644531 11.40625 -28.03125 Z M 22.6875 -50.15625 C 23 -50.632812 23.414062 -50.9375 23.9375 -51.0625 C 24.457031 -51.1875 25 -51.222656 25.5625 -51.171875 C 25.675781 -51.171875 25.773438 -51.171875 25.859375 -51.171875 C 26.085938 -51.117188 26.328125 -51.09375 26.578125 -51.09375 C 27.878906 -50.78125 28.609375 -50.335938 28.765625 -49.765625 C 28.921875 -49.203125 28.765625 -48.609375 28.296875 -47.984375 C 27.828125 -47.367188 27.328125 -46.820312 26.796875 -46.34375 C 25.460938 -44.894531 24.175781 -43.238281 22.9375 -41.375 C 21.832031 -39.820312 20.851562 -38.59375 20 -37.6875 C 19.15625 -36.78125 18.523438 -36.664062 18.109375 -37.34375 C 17.597656 -37.738281 17.328125 -38.179688 17.296875 -38.671875 C 17.265625 -39.171875 17.347656 -39.707031 17.546875 -40.28125 C 17.921875 -41.882812 18.492188 -43.382812 19.265625 -44.78125 C 20.046875 -46.1875 20.898438 -47.566406 21.828125 -48.921875 C 22.085938 -49.378906 22.375 -49.789062 22.6875 -50.15625 Z M 22.6875 -50.15625 "/></g></g></g><g fill="#a5202a" fill-opacity="1"><g transform="translate(242.664253, 222.029611)"><g><path d="M 27.046875 -20.3125 C 27.585938 -21.414062 27.957031 -21.921875 28.15625 -21.828125 C 28.351562 -21.742188 28.398438 -21.300781 28.296875 -20.5 C 28.203125 -19.695312 28.023438 -18.785156 27.765625 -17.765625 C 27.398438 -16.210938 26.765625 -14.410156 25.859375 -12.359375 C 24.953125 -10.304688 23.953125 -8.445312 22.859375 -6.78125 C 21.210938 -4.46875 19.179688 -2.722656 16.765625 -1.546875 C 14.347656 -0.367188 12.15625 -0.078125 10.1875 -0.671875 C 8.226562 -1.265625 7.09375 -3.117188 6.78125 -6.234375 C 6.726562 -8.828125 6.957031 -11.679688 7.46875 -14.796875 C 7.632812 -16.097656 7.816406 -17.367188 8.015625 -18.609375 C 8.015625 -19.066406 7.898438 -19.414062 7.671875 -19.65625 C 7.441406 -19.894531 7.144531 -19.984375 6.78125 -19.921875 C 6.53125 -19.921875 6.25 -19.921875 5.9375 -19.921875 C 4.382812 -19.671875 2.800781 -19.703125 1.1875 -20.015625 C -0.738281 -20.578125 -1.851562 -21.53125 -2.15625 -22.875 C -2.46875 -24.21875 -2.441406 -25.976562 -2.078125 -28.15625 C -1.878906 -29.707031 -1.296875 -30.867188 -0.328125 -31.640625 C 0.628906 -32.421875 1.753906 -32.742188 3.046875 -32.609375 C 4.859375 -32.429688 5.734375 -31.734375 5.671875 -30.515625 C 5.617188 -29.304688 5.28125 -28.007812 4.65625 -26.625 C 4.09375 -25.46875 3.796875 -24.5 3.765625 -23.71875 C 3.742188 -22.945312 4.410156 -22.671875 5.765625 -22.890625 C 6.078125 -22.972656 6.414062 -23.070312 6.78125 -23.1875 C 7.289062 -23.382812 7.867188 -23.5625 8.515625 -23.71875 C 9.171875 -23.875 10.019531 -23.910156 11.0625 -23.828125 C 12.3125 -23.765625 13.140625 -23.191406 13.546875 -22.109375 C 13.953125 -21.023438 14.125 -19.660156 14.0625 -18.015625 C 14.007812 -16.378906 13.859375 -14.710938 13.609375 -13.015625 C 13.296875 -10.898438 13.140625 -9.082031 13.140625 -7.5625 C 13.140625 -6.050781 13.578125 -5.171875 14.453125 -4.921875 C 15.617188 -4.609375 17.351562 -5.660156 19.65625 -8.078125 C 21.957031 -10.492188 24.421875 -14.570312 27.046875 -20.3125 Z M 27.046875 -20.3125 "/></g></g></g><g fill="#a5202a" fill-opacity="1"><g transform="translate(268.60977, 222.029611)"><g><path d="M 22 -17.203125 C 21.125 -15.398438 19.632812 -13.394531 17.53125 -11.1875 C 15.425781 -8.988281 13.035156 -7.59375 10.359375 -7 C 7.691406 -6.40625 5.144531 -7.320312 2.71875 -9.75 C 1.78125 -10.820312 1.09375 -12.054688 0.65625 -13.453125 C 0.21875 -14.859375 0.0546875 -16.238281 0.171875 -17.59375 C 0.171875 -17.957031 0.171875 -18.425781 0.171875 -19 C 0.171875 -20.4375 0.234375 -22.101562 0.359375 -24 C 0.484375 -25.894531 0.765625 -27.601562 1.203125 -29.125 C 1.640625 -30.65625 2.328125 -31.570312 3.265625 -31.875 C 5.953125 -32.5625 7.40625 -31.628906 7.625 -29.078125 C 7.625 -28.265625 7.597656 -27.445312 7.546875 -26.625 C 7.492188 -26.195312 7.46875 -25.800781 7.46875 -25.4375 C 7.40625 -24.25 7.347656 -23.0625 7.296875 -21.875 C 7.296875 -20.945312 7.253906 -20.015625 7.171875 -19.078125 C 7.109375 -14.984375 8.023438 -12.546875 9.921875 -11.765625 C 11.816406 -10.984375 13.976562 -11.804688 16.40625 -14.234375 C 18.832031 -16.671875 20.421875 -18.691406 21.171875 -20.296875 C 21.921875 -21.910156 22.460938 -22.25 22.796875 -21.3125 C 23.140625 -20.382812 22.875 -19.015625 22 -17.203125 Z M 7.078125 -40.609375 C 6.710938 -40.304688 6.265625 -40.109375 5.734375 -40.015625 C 5.210938 -39.929688 4.753906 -39.976562 4.359375 -40.15625 C 4.054688 -40.40625 3.859375 -40.734375 3.765625 -41.140625 C 3.679688 -41.554688 3.640625 -42.046875 3.640625 -42.609375 C 3.640625 -42.722656 3.671875 -42.835938 3.734375 -42.953125 C 3.785156 -43.453125 3.910156 -43.957031 4.109375 -44.46875 C 4.671875 -45.832031 5.84375 -46.457031 7.625 -46.34375 C 8.25 -46.257812 8.738281 -46.003906 9.09375 -45.578125 C 9.445312 -45.148438 9.523438 -44.65625 9.328125 -44.09375 C 8.898438 -42.707031 8.148438 -41.546875 7.078125 -40.609375 Z M 7.078125 -40.609375 "/></g></g></g><g fill="#a5202a" fill-opacity="1"><g transform="translate(289.425542, 222.029611)"><g><path d="M 40.875 -20.484375 C 41.488281 -20.847656 42.09375 -21.128906 42.6875 -21.328125 C 43.28125 -21.523438 43.671875 -21.507812 43.859375 -21.28125 C 44.046875 -21.050781 43.800781 -20.539062 43.125 -19.75 C 41 -17.320312 38.457031 -15.097656 35.5 -13.078125 C 32.550781 -11.054688 29.519531 -9.351562 26.40625 -7.96875 C 23.976562 -6.863281 21.414062 -5.984375 18.71875 -5.328125 C 16.019531 -4.679688 13.347656 -4.539062 10.703125 -4.90625 C 8.054688 -5.28125 5.644531 -6.457031 3.46875 -8.4375 C 0.164062 -11.488281 -1.203125 -15.21875 -0.640625 -19.625 C -0.160156 -23.132812 1.203125 -26.109375 3.453125 -28.546875 C 5.703125 -30.992188 8.535156 -32.65625 11.953125 -33.53125 C 14.804688 -34.15625 17.660156 -34.226562 20.515625 -33.75 C 21.816406 -33.550781 23.003906 -33.113281 24.078125 -32.4375 C 25.066406 -31.664062 25.609375 -30.769531 25.703125 -29.75 C 25.804688 -28.738281 25.421875 -27.769531 24.546875 -26.84375 C 22.734375 -25.226562 20.640625 -24.265625 18.265625 -23.953125 C 15.609375 -23.503906 12.941406 -23.222656 10.265625 -23.109375 C 8.960938 -23.109375 8.046875 -22.835938 7.515625 -22.296875 C 6.992188 -21.765625 6.691406 -20.847656 6.609375 -19.546875 C 6.191406 -16.015625 7.320312 -13.128906 10 -10.890625 C 11.664062 -9.566406 13.691406 -9.003906 16.078125 -9.203125 C 18.472656 -9.398438 21.015625 -10.039062 23.703125 -11.125 C 26.390625 -12.21875 29.015625 -13.488281 31.578125 -14.9375 C 34.148438 -16.394531 36.46875 -17.773438 38.53125 -19.078125 C 39.414062 -19.640625 40.195312 -20.109375 40.875 -20.484375 Z M 11.40625 -28.03125 C 11.40625 -27.96875 11.363281 -27.9375 11.28125 -27.9375 C 11.164062 -27.820312 11.015625 -27.6875 10.828125 -27.53125 C 10.648438 -27.375 10.484375 -27.21875 10.328125 -27.0625 C 10.171875 -26.914062 10.09375 -26.8125 10.09375 -26.75 C 10.144531 -26.550781 10.648438 -26.5 11.609375 -26.59375 C 12.578125 -26.695312 13.640625 -26.867188 14.796875 -27.109375 C 15.953125 -27.347656 16.914062 -27.671875 17.6875 -28.078125 C 18.46875 -28.492188 18.707031 -28.984375 18.40625 -29.546875 C 18.257812 -29.722656 18.078125 -29.875 17.859375 -30 C 17.648438 -30.125 17.421875 -30.210938 17.171875 -30.265625 C 16.035156 -30.265625 15 -30.046875 14.0625 -29.609375 C 13.132812 -29.171875 12.25 -28.644531 11.40625 -28.03125 Z M 11.40625 -28.03125 "/></g></g></g><g clip-path="url(#0971975f95)"><g clip-path="url(#19c363bc58)"><g clip-path="url(#e9a92115c4)"><path fill="#a5202a" d="M 121.324219 203.964844 C 121.324219 203.253906 121.640625 202.621094 121.777344 201.9375 C 121.828125 200.988281 122.113281 200.0625 122.089844 199.113281 C 121.75 197.507812 122.285156 195.972656 122.335938 194.367188 C 122.363281 193.332031 122.21875 192.308594 122.113281 191.285156 C 122.070312 190.234375 122.347656 189.195312 122.246094 188.144531 C 122.046875 186.636719 121.519531 185.1875 121.351562 183.667969 C 121.136719 182.371094 120.457031 181.261719 119.816406 180.144531 C 119.511719 179.394531 119.402344 178.546875 119.191406 177.765625 C 118.964844 176.730469 118.53125 175.746094 118.511719 174.675781 C 118.589844 172.941406 117.753906 171.332031 117.773438 169.621094 C 117.859375 168.855469 118.054688 168.109375 118.09375 167.339844 C 118.160156 165.691406 118.25 163.992188 118.675781 162.390625 C 119.382812 161.117188 119.359375 159.652344 119.792969 158.292969 C 119.863281 158.199219 119.925781 158.101562 119.980469 158 C 120.363281 157.585938 120.824219 157.21875 121.167969 156.757812 C 121.453125 156.394531 121.703125 155.996094 122.019531 155.65625 C 122.636719 155.046875 123.453125 154.667969 124.042969 154.035156 C 124.582031 153.488281 125.171875 152.855469 125.996094 152.84375 C 126.171875 152.796875 126.265625 152.59375 126.292969 152.433594 C 126.386719 151.964844 126 151.660156 125.589844 151.539062 C 124.953125 151.277344 124.207031 151.058594 123.667969 151.632812 C 123.441406 151.878906 123.21875 152.148438 123.007812 152.421875 C 122.957031 152.460938 122.914062 152.496094 122.878906 152.527344 C 122.484375 152.890625 122.144531 153.308594 121.785156 153.707031 C 121.40625 154.085938 120.933594 154.382812 120.652344 154.839844 C 120.179688 155.28125 119.769531 155.773438 119.421875 156.316406 C 119.128906 156.703125 118.726562 156.984375 118.390625 157.335938 C 117.816406 157.890625 117.511719 158.640625 117.132812 159.324219 C 116.21875 160.886719 114.777344 162.101562 114.085938 163.804688 C 113.667969 164.617188 113.511719 165.527344 113.148438 166.355469 C 112.726562 167.207031 112.101562 167.964844 111.804688 168.875 C 111.59375 169.460938 111.515625 170.078125 111.367188 170.675781 C 111.15625 171.355469 110.851562 171.996094 110.675781 172.683594 C 110.308594 173.855469 110.488281 175.097656 110.203125 176.273438 C 109.941406 177.097656 109.558594 177.878906 109.296875 178.699219 C 108.984375 179.722656 108.785156 180.773438 108.328125 181.75 C 107.796875 182.949219 107.769531 184.3125 107.195312 185.480469 C 106.816406 186.078125 106.324219 186.597656 106.039062 187.253906 C 105.628906 188.292969 105.148438 189.296875 104.59375 190.265625 C 104.296875 190.953125 102.710938 192.347656 103.347656 193.042969 C 103.894531 193.527344 104.527344 191.789062 104.867188 191.378906 C 105.765625 190.378906 106.328125 189.160156 106.925781 187.960938 C 107.378906 187.042969 107.5 185.984375 108.09375 185.132812 C 108.875 184 109.230469 182.660156 109.609375 181.355469 C 109.992188 180.390625 110.46875 179.453125 110.644531 178.417969 C 110.785156 177.65625 110.742188 176.875 110.90625 176.121094 C 111.136719 175.257812 111.53125 174.445312 111.734375 173.574219 C 111.972656 172.300781 112.359375 171.070312 112.890625 169.890625 C 113.367188 168.742188 113.398438 167.457031 113.917969 166.332031 C 115.003906 164.789062 116.0625 163.230469 116.671875 161.429688 C 116.890625 160.761719 117.386719 160.320312 117.886719 159.878906 C 117.855469 160.039062 117.890625 160.183594 117.984375 160.316406 C 117.96875 160.398438 117.953125 160.484375 117.9375 160.570312 C 117.789062 161.691406 117.820312 162.839844 117.445312 163.925781 C 117.167969 165.3125 116.980469 166.71875 116.890625 168.132812 C 116.890625 168.941406 117.101562 169.6875 117.175781 170.507812 C 117.191406 171.59375 117.113281 172.679688 117.269531 173.757812 C 117.640625 175.582031 117.605469 177.527344 118.507812 179.195312 C 119.601562 180.691406 119.703125 182.5 120.152344 184.238281 C 120.484375 185.273438 120.667969 186.335938 120.703125 187.421875 C 121.042969 189.511719 121.765625 190.75 121.308594 192.976562 C 121.113281 194.441406 121.476562 195.882812 121.488281 197.34375 C 121.414062 198.0625 121.207031 198.765625 121.242188 199.496094 C 121.269531 199.976562 121.351562 200.453125 121.21875 200.929688 C 121.011719 201.628906 121.0625 202.351562 121.039062 203.066406 C 120.9375 203.480469 120.761719 203.917969 120.945312 204.335938 C 120.980469 204.429688 121.046875 204.496094 121.140625 204.53125 C 121.234375 204.566406 121.328125 204.5625 121.417969 204.515625 C 121.65625 204.417969 121.59375 203.953125 121.324219 203.964844 Z M 124.410156 152.671875 C 124.347656 152.695312 124.285156 152.714844 124.21875 152.734375 C 124.300781 152.6875 124.390625 152.660156 124.484375 152.644531 Z M 124.410156 152.671875 " fill-opacity="1" fill-rule="nonzero"/></g></g></g><g clip-path="url(#803a8e6fad)"><g clip-path="url(#4dec7422f6)"><g clip-path="url(#84caa4d5a6)"><path fill="#a5202a" d="M 122.839844 195.980469 C 122.898438 195.566406 122.910156 195.144531 122.976562 194.726562 C 123.042969 194.3125 122.960938 193.910156 122.972656 193.5 C 123.09375 192.96875 123.101562 192.4375 122.984375 191.902344 C 122.945312 191.71875 122.894531 191.542969 122.832031 191.367188 C 122.820312 191.085938 122.777344 190.808594 122.742188 190.53125 C 122.644531 190.011719 122.429688 189.542969 122.097656 189.132812 C 122.097656 189.074219 122.089844 189.015625 122.070312 188.964844 C 121.660156 187.949219 121.414062 187.488281 120.695312 186.875 C 120.632812 186.78125 120.566406 186.699219 120.5 186.605469 C 120.410156 186.5 120.316406 186.402344 120.214844 186.308594 C 120.132812 186.242188 120.046875 186.179688 119.960938 186.125 C 119.863281 186.066406 119.761719 186.019531 119.664062 185.972656 C 119.257812 185.632812 118.796875 185.398438 118.285156 185.261719 C 117.863281 185.148438 117.429688 185.09375 117.011719 184.96875 C 116.402344 184.714844 115.800781 184.414062 115.125 184.382812 C 114.746094 184.355469 114.367188 184.355469 113.984375 184.382812 C 113.808594 184.382812 113.628906 184.390625 113.453125 184.40625 C 113.375 184.410156 113.300781 184.410156 113.214844 184.410156 C 112.691406 184.355469 112.175781 184.195312 111.640625 184.226562 C 111.371094 184.257812 111.101562 184.269531 110.832031 184.265625 C 110.558594 184.230469 110.292969 184.175781 110.027344 184.140625 C 109.949219 184.132812 109.878906 184.128906 109.796875 184.125 L 109.53125 183.992188 L 109.484375 183.972656 L 109.46875 183.972656 C 109.375 183.941406 109.28125 183.914062 109.183594 183.886719 C 109.125 183.875 109.066406 183.863281 109.007812 183.851562 L 108.894531 183.828125 C 108.832031 183.816406 108.769531 183.796875 108.710938 183.777344 C 108.632812 183.777344 108.558594 183.773438 108.476562 183.769531 C 108.378906 183.757812 108.28125 183.746094 108.183594 183.722656 C 107.996094 183.640625 107.804688 183.566406 107.625 183.484375 L 107.5625 183.445312 L 107.585938 183.460938 L 107.5625 183.445312 L 107.605469 183.472656 C 107.398438 183.351562 107.1875 183.242188 106.972656 183.136719 L 106.925781 183.125 C 106.726562 183.066406 106.527344 183.003906 106.332031 182.925781 C 105.941406 182.777344 105.542969 182.640625 105.167969 182.457031 C 104.984375 182.367188 104.808594 182.261719 104.621094 182.164062 C 104.433594 182.066406 104.269531 181.984375 104.09375 181.894531 C 103.964844 181.835938 103.839844 181.78125 103.707031 181.734375 C 103.476562 181.664062 103.238281 181.613281 103.007812 181.535156 C 102.773438 181.460938 102.574219 181.386719 102.359375 181.3125 C 102.140625 181.234375 101.957031 181.195312 101.753906 181.152344 C 101.417969 181.101562 101.074219 181.0625 100.734375 181.007812 L 100.714844 181.003906 C 100.523438 180.964844 100.328125 180.925781 100.132812 180.890625 C 100.015625 180.894531 99.894531 180.894531 99.777344 180.898438 C 99.550781 180.902344 99.324219 180.890625 99.097656 180.90625 L 99.058594 180.917969 C 98.851562 180.976562 98.644531 181.015625 98.4375 181.070312 C 98.375 181.09375 98.3125 181.113281 98.25 181.140625 L 97.957031 181.296875 C 97.84375 181.355469 97.730469 181.402344 97.621094 181.460938 C 97.386719 181.566406 97.148438 181.652344 96.902344 181.722656 L 96.921875 181.714844 L 96.796875 181.753906 C 96.707031 181.785156 96.617188 181.816406 96.527344 181.855469 C 95.640625 182.472656 94.839844 183.195312 94.132812 184.011719 C 93.703125 184.5625 93.304688 185.132812 92.933594 185.722656 C 92.503906 186.371094 92.074219 187.023438 91.679688 187.691406 C 91.320312 188.460938 90.90625 189.199219 90.597656 189.996094 C 90.089844 191.5 90.027344 193.027344 90.414062 194.570312 C 90.402344 194.628906 90.40625 194.6875 90.402344 194.742188 C 90.359375 195.28125 90.253906 195.824219 90.273438 196.367188 C 90.414062 197.226562 90.707031 198.027344 91.160156 198.769531 C 91.386719 199.15625 91.445312 199.613281 91.632812 200.019531 C 91.90625 200.617188 92.257812 201.164062 92.679688 201.664062 C 92.964844 201.976562 93.300781 202.242188 93.550781 202.578125 C 93.90625 203.074219 94.160156 203.625 94.550781 204.09375 C 94.898438 204.578125 95.246094 205.078125 95.746094 205.421875 C 96.253906 205.765625 96.792969 206.050781 97.367188 206.273438 C 97.796875 206.46875 98.136719 206.792969 98.503906 207.078125 C 99.0625 207.472656 99.671875 207.746094 100.339844 207.894531 C 100.761719 208.054688 101.128906 208.316406 101.570312 208.425781 C 102.054688 208.554688 102.570312 208.472656 103.054688 208.597656 C 103.175781 208.625 103.367188 208.671875 103.578125 208.726562 C 103.980469 208.890625 104.394531 209.023438 104.816406 209.125 C 105.6875 209.277344 106.578125 209.164062 107.457031 209.175781 C 107.828125 209.195312 108.203125 209.230469 108.570312 209.214844 C 109.308594 209.195312 110.003906 209.011719 110.65625 208.667969 C 111.042969 208.449219 111.4375 208.257812 111.847656 208.085938 C 112.355469 207.910156 112.894531 207.859375 113.410156 207.726562 C 114.105469 207.539062 114.738281 207.167969 115.335938 206.777344 C 115.6875 206.535156 115.953125 206.179688 116.308594 205.941406 C 116.816406 205.617188 117.417969 205.421875 117.84375 204.980469 C 118.039062 204.753906 118.183594 204.476562 118.390625 204.253906 C 118.578125 204.074219 118.777344 203.917969 118.964844 203.734375 C 119.351562 203.332031 119.597656 202.816406 120.003906 202.421875 C 120.40625 202.035156 120.753906 201.605469 121.046875 201.132812 C 121.109375 201.035156 121.171875 200.9375 121.222656 200.832031 C 121.28125 200.757812 121.335938 200.679688 121.386719 200.597656 C 121.542969 200.34375 121.664062 200.078125 121.757812 199.796875 C 121.875 199.464844 121.9375 199.113281 122.0625 198.78125 C 122.367188 198.164062 122.546875 197.511719 122.601562 196.828125 C 122.710938 196.554688 122.789062 196.273438 122.839844 195.980469 Z M 122.839844 195.980469 " fill-opacity="1" fill-rule="nonzero"/></g></g></g><g clip-path="url(#2bdabd3e01)"><g clip-path="url(#5e5add4e9b)"><g clip-path="url(#8eac179408)"><path fill="#fbf6f0" d="M 114.195312 203.605469 C 113.644531 202.492188 116.453125 201.359375 116.835938 200.207031 C 117.15625 199.570312 117.175781 198.832031 117.394531 198.152344 C 117.859375 197.035156 117.9375 195.863281 117.984375 194.660156 C 118.347656 193.085938 118.265625 192.363281 117.339844 191.007812 C 116.820312 190.535156 117.550781 189.605469 117.9375 190.402344 C 118.503906 191.21875 118.71875 192.175781 118.871094 193.136719 C 119.222656 194.355469 119.011719 195.570312 118.707031 196.765625 C 118.757812 198.210938 118.0625 199.410156 117.265625 200.550781 C 116.929688 201.296875 116.617188 202.0625 116.03125 202.652344 C 115.628906 202.976562 114.652344 204.296875 114.195312 203.605469 Z M 114.195312 203.605469 " fill-opacity="1" fill-rule="nonzero"/></g></g></g><g clip-path="url(#7e2953e698)"><g clip-path="url(#0c8b5835d7)"><g clip-path="url(#1460fa2f02)"><path fill="#fbf6f0" d="M 108.226562 189.484375 C 107.5625 189.265625 106.953125 188.890625 106.273438 188.699219 C 105.34375 188.429688 104.191406 188.398438 103.589844 187.523438 C 103.402344 187.214844 103.625 186.652344 104.03125 186.722656 C 104.890625 187.109375 105.761719 187.503906 106.660156 187.8125 C 107.714844 188.125 108.847656 187.925781 109.875 188.375 C 110.652344 188.691406 111.394531 188.222656 112.167969 188.164062 C 112.894531 187.890625 113.289062 188.625 112.9375 189.226562 C 112.445312 189.824219 111.46875 189.738281 110.757812 189.683594 C 109.910156 189.683594 109.046875 189.796875 108.226562 189.484375 Z M 108.226562 189.484375 " fill-opacity="1" fill-rule="nonzero"/></g></g></g><g clip-path="url(#6f957015db)"><g clip-path="url(#9667e62468)"><g clip-path="url(#ca70fc3cda)"><path fill="#fbf6f0" d="M 94.722656 191.011719 C 94.015625 190.546875 94.738281 189.570312 94.910156 188.976562 C 95.265625 188.199219 96.039062 187.777344 96.574219 187.152344 C 96.863281 186.882812 97.289062 185.976562 97.742188 186.277344 C 97.90625 186.472656 97.761719 186.828125 97.554688 186.933594 C 96.574219 187.710938 96.148438 188.828125 95.632812 189.921875 C 95.4375 190.328125 95.355469 191.183594 94.722656 191.011719 Z M 94.722656 191.011719 " fill-opacity="1" fill-rule="nonzero"/></g></g></g><g clip-path="url(#4798a553e2)"><g clip-path="url(#78404e5fd7)"><g clip-path="url(#06ff9adef0)"><path fill="#fbf6f0" d="M 93.496094 195.734375 C 93.515625 195.234375 93.488281 194.796875 93.515625 194.308594 C 93.539062 194.101562 93.648438 193.632812 93.9375 193.816406 C 94.039062 193.917969 94.054688 194.03125 93.984375 194.15625 C 93.902344 194.652344 93.882812 195.152344 93.917969 195.65625 C 93.9375 195.976562 93.53125 196.121094 93.496094 195.734375 Z M 93.496094 195.734375 " fill-opacity="1" fill-rule="nonzero"/></g></g></g><g clip-path="url(#4ec8b2f6a2)"><g clip-path="url(#0735edf7b3)"><g clip-path="url(#66c37a1da0)"><path fill="#a5202a" d="M 136.226562 205.445312 C 136.226562 204.882812 136.289062 204.328125 136.40625 203.777344 C 136.53125 203.089844 136.730469 202.410156 136.734375 201.710938 C 136.738281 201.011719 136.441406 200.304688 136.328125 199.597656 C 136.25 198.972656 136.074219 198.375 135.796875 197.808594 C 135.621094 197.332031 135.410156 196.875 135.160156 196.433594 C 134.929688 196 134.554688 195.683594 134.226562 195.332031 C 134.039062 194.988281 133.804688 194.675781 133.527344 194.394531 C 133.167969 193.859375 132.78125 193.332031 132.203125 193.015625 C 131.910156 192.855469 131.597656 192.738281 131.304688 192.574219 C 130.960938 192.378906 130.597656 192.242188 130.207031 192.167969 C 129.839844 191.960938 129.289062 191.703125 128.890625 191.894531 C 128.324219 191.714844 127.753906 191.703125 127.179688 191.859375 C 126.960938 191.914062 126.742188 191.984375 126.523438 192.050781 C 126.03125 192.199219 125.601562 192.503906 125.113281 192.664062 C 124.652344 192.808594 124.167969 192.855469 123.707031 192.976562 C 123.214844 193.097656 122.761719 193.367188 122.261719 193.445312 C 121.820312 193.429688 121.382812 193.441406 120.945312 193.476562 C 120.84375 193.480469 120.742188 193.488281 120.644531 193.5 C 120.015625 193.519531 119.386719 193.503906 118.761719 193.445312 C 118.019531 193.128906 117.25 193 116.449219 193.058594 C 115.375 193.164062 114.332031 193.59375 113.265625 193.84375 C 111.957031 194.117188 110.554688 194.417969 109.449219 195.203125 C 108.660156 195.824219 108.039062 196.582031 107.585938 197.476562 C 106.84375 198.566406 106.058594 199.648438 105.851562 200.984375 C 105.550781 202.238281 105.929688 203.488281 106.089844 204.730469 C 106.191406 206.042969 106.46875 207.378906 107.121094 208.53125 C 107.484375 209.242188 108.089844 209.742188 108.566406 210.386719 C 109.199219 211.351562 109.644531 212.441406 110.484375 213.257812 C 111.070312 213.917969 111.882812 214.265625 112.628906 214.699219 C 113.570312 215.289062 114.484375 215.945312 115.582031 216.195312 C 115.679688 216.21875 115.773438 216.238281 115.875 216.25 C 116.089844 216.390625 116.3125 216.515625 116.539062 216.628906 C 117.632812 217.085938 118.773438 217.300781 119.957031 217.277344 C 120.476562 217.324219 120.988281 217.40625 121.515625 217.359375 C 122.46875 217.355469 123.304688 216.84375 124.230469 216.726562 C 125.246094 216.753906 126.152344 216.292969 127.023438 215.8125 C 127.636719 215.523438 128.308594 215.375 128.871094 214.980469 C 129.347656 214.667969 129.75 214.257812 130.214844 213.925781 C 131.488281 213.246094 132.558594 212.445312 133.320312 211.320312 C 133.382812 211.3125 133.4375 211.285156 133.480469 211.238281 C 133.6875 211.023438 133.867188 210.78125 134.050781 210.550781 C 134.789062 209.761719 135.132812 208.726562 135.609375 207.78125 C 136.214844 206.929688 136.261719 206.457031 136.226562 205.445312 Z M 136.226562 205.445312 " fill-opacity="1" fill-rule="nonzero"/></g></g></g><g clip-path="url(#0a4f0cb515)"><g clip-path="url(#a40f82da70)"><g clip-path="url(#010a072092)"><path fill="#a5202a" d="M 150.664062 168.828125 C 150.71875 167.6875 150.597656 166.542969 150.625 165.40625 C 150.570312 164.386719 150.683594 163.277344 150.007812 162.421875 C 148.757812 160.332031 147.320312 158.175781 144.988281 157.226562 C 143.152344 155.964844 140.742188 155.035156 138.496094 155.292969 C 137.648438 155.300781 136.894531 154.851562 136.066406 154.734375 C 134.515625 154.761719 132.941406 154.464844 131.414062 154.816406 C 130.777344 155.011719 130.121094 154.960938 129.46875 154.925781 C 128.324219 154.941406 127.21875 155.28125 126.136719 155.625 C 125.132812 155.816406 124.078125 155.613281 123.15625 156.160156 C 122.515625 156.410156 121.804688 156.460938 121.207031 156.832031 C 120.644531 157.203125 119.976562 157.292969 119.367188 157.539062 C 119.304688 157.464844 119.230469 157.40625 119.140625 157.367188 C 118.988281 156.277344 118.902344 155.183594 118.773438 154.089844 C 118.328125 152.980469 118.167969 151.71875 117.457031 150.738281 C 116.589844 149.820312 116.453125 148.542969 115.96875 147.425781 C 115.703125 146.722656 115.214844 146.140625 114.925781 145.449219 C 114.671875 144.414062 114.214844 143.46875 113.5625 142.625 C 113.101562 141.660156 112.339844 140.945312 111.441406 140.386719 C 110.730469 139.640625 110.09375 138.800781 109.101562 138.410156 C 108.398438 138.019531 107.824219 137.421875 107.082031 137.085938 C 106.460938 136.8125 105.785156 136.675781 105.214844 136.285156 C 103.742188 135.464844 101.894531 135.664062 100.296875 135.96875 C 98.410156 135.960938 98.042969 137.765625 97.269531 139.09375 C 95.839844 140.609375 95.378906 141.175781 94.953125 143.261719 C 94.492188 144.28125 93.984375 145.28125 94.140625 146.429688 C 93.785156 147.648438 94.042969 148.878906 94.457031 150.042969 C 94.84375 152.789062 95.851562 154.0625 98.511719 154.898438 C 99.1875 155.246094 99.8125 155.726562 100.574219 155.890625 C 101.839844 156.027344 103.078125 156.292969 104.285156 156.691406 C 104.984375 156.859375 105.707031 156.851562 106.421875 156.851562 C 107.472656 156.894531 108.507812 157.136719 109.5625 157.035156 C 110.230469 156.984375 110.902344 157.046875 111.566406 156.953125 C 112.191406 156.84375 112.816406 156.632812 113.449219 156.808594 C 114.433594 157.070312 115.40625 157.613281 116.386719 157.890625 C 116.566406 157.949219 116.753906 157.988281 116.941406 158.003906 C 116.6875 158.113281 116.445312 158.246094 116.210938 158.402344 L 116.160156 158.414062 C 115.328125 158.605469 114.550781 158.972656 113.730469 159.210938 C 112.292969 159.195312 110.878906 159.324219 109.503906 159.800781 C 108.683594 160.0625 107.828125 159.875 106.992188 160.035156 C 105.308594 160.21875 103.976562 161.402344 102.960938 162.675781 C 102.003906 163.617188 100.78125 164.335938 100.195312 165.605469 C 100.058594 165.953125 99.90625 166.296875 99.730469 166.628906 C 99.691406 166.699219 99.648438 166.769531 99.601562 166.832031 C 99.417969 167.046875 99.21875 167.246094 99.007812 167.429688 C 98.710938 167.75 98.4375 168.089844 98.183594 168.445312 C 97.847656 168.800781 97.40625 169.03125 97.050781 169.367188 C 96.652344 169.710938 96.324219 170.140625 95.867188 170.410156 C 95.160156 170.757812 94.347656 170.792969 93.585938 170.972656 C 92.871094 171.148438 92.164062 171.378906 91.4375 171.507812 C 91.207031 171.546875 90.976562 171.558594 90.742188 171.542969 C 90.398438 171.46875 90.066406 171.335938 89.714844 171.285156 C 89.039062 171.167969 88.34375 171.128906 87.660156 170.972656 C 87.417969 170.890625 87.191406 170.777344 86.953125 170.6875 C 86.417969 170.5 85.875 170.339844 85.324219 170.214844 C 84.878906 170.082031 84.34375 170.058594 84.003906 169.710938 C 83.890625 169.546875 83.789062 169.382812 83.699219 169.207031 C 83.648438 169.109375 83.621094 168.988281 83.523438 168.925781 C 83.410156 168.863281 83.296875 168.855469 83.175781 168.902344 C 82.648438 169.128906 82.527344 169.796875 82.472656 170.308594 C 82.382812 171.265625 83.015625 172.160156 83.578125 172.878906 C 83.046875 172.726562 82.660156 172.304688 82.195312 172.03125 C 82.105469 171.882812 81.976562 171.816406 81.804688 171.839844 C 80.691406 172.101562 81.273438 173.515625 81.488281 174.257812 C 81.574219 174.597656 81.691406 174.929688 81.839844 175.246094 C 82.195312 175.921875 82.761719 176.449219 83.191406 177.074219 C 83.941406 178.074219 84.699219 179.234375 85.984375 179.570312 C 86.8125 179.800781 87.75 179.660156 88.625 179.582031 C 89.082031 179.566406 89.523438 179.683594 89.972656 179.699219 C 90.613281 179.664062 91.28125 179.578125 91.867188 179.300781 C 92.609375 179.203125 93.304688 178.882812 94.046875 178.8125 C 94.933594 178.851562 95.785156 178.699219 96.597656 178.34375 C 97.03125 178.164062 97.4375 177.933594 97.894531 177.800781 C 98.171875 177.722656 98.449219 177.652344 98.726562 177.566406 C 99.660156 177.277344 100.476562 176.71875 101.359375 176.316406 C 101.867188 176.101562 102.417969 175.996094 102.902344 175.726562 C 104.226562 175.027344 105.179688 173.84375 106.273438 172.859375 C 106.542969 172.582031 106.789062 172.285156 107.007812 171.96875 C 107.578125 171.167969 107.789062 170.175781 108.347656 169.359375 C 109.265625 168.019531 110.355469 166.785156 111.113281 165.335938 C 111.355469 164.773438 111.699219 164.261719 111.988281 163.722656 C 112.183594 163.316406 112.421875 162.933594 112.699219 162.578125 C 113.367188 161.816406 114.292969 161.339844 114.996094 160.613281 C 115.339844 160.285156 115.636719 159.90625 115.988281 159.585938 C 116.246094 159.445312 116.496094 159.289062 116.738281 159.121094 C 117.109375 158.941406 117.503906 158.78125 117.863281 158.59375 C 117.886719 158.675781 117.925781 158.746094 117.972656 158.816406 C 118.441406 159.300781 118.957031 159.746094 119.445312 160.222656 C 119.441406 160.253906 119.445312 160.292969 119.441406 160.328125 C 119.382812 160.757812 119.148438 161.140625 119.058594 161.570312 C 118.96875 161.996094 118.972656 162.460938 118.933594 162.898438 C 118.84375 163.277344 118.789062 163.660156 118.773438 164.050781 C 118.78125 164.621094 118.902344 165.171875 118.890625 165.75 C 118.804688 166.503906 118.683594 167.273438 118.820312 168.03125 C 118.90625 168.636719 119.164062 169.195312 119.320312 169.785156 C 119.410156 170.308594 119.414062 170.84375 119.527344 171.363281 C 119.636719 171.78125 119.78125 172.1875 119.957031 172.578125 C 120.082031 173.058594 120.242188 173.523438 120.433594 173.980469 C 120.640625 174.40625 120.886719 174.808594 121.171875 175.183594 C 121.441406 175.601562 121.601562 176.078125 121.816406 176.515625 C 122.023438 176.929688 122.277344 177.3125 122.578125 177.667969 C 123.183594 178.253906 123.5625 179.007812 124.117188 179.636719 C 124.550781 180.175781 125.15625 180.507812 125.671875 180.949219 C 125.773438 181.046875 125.875 181.140625 125.96875 181.242188 C 125.972656 181.53125 126.257812 181.859375 126.507812 182 C 126.617188 182.863281 127.117188 183.65625 127.058594 184.550781 C 127.046875 185.488281 127.328125 186.433594 126.914062 187.324219 C 126.585938 188.304688 126.851562 189.429688 126.226562 190.320312 C 125.816406 191.105469 125.296875 191.820312 124.851562 192.582031 C 124.539062 192.90625 124.433594 193.480469 124.863281 193.761719 C 125.863281 193.957031 127.09375 193.890625 127.921875 193.21875 C 128.007812 193.882812 127.714844 195.25 128.382812 195.605469 C 131.300781 194.90625 131.550781 193.421875 132.585938 190.96875 C 133.128906 189.914062 133.21875 188.726562 132.777344 187.679688 C 132.910156 187.335938 132.875 186.695312 132.988281 186.441406 C 133.085938 185.1875 132.640625 183.953125 132.875 182.6875 C 132.871094 180.945312 131.835938 178.835938 130.988281 177.320312 C 130.355469 176.457031 129.527344 175.757812 128.957031 174.847656 C 128.269531 173.847656 127.265625 173.148438 126.476562 172.246094 C 125.464844 170.773438 123.6875 169.988281 123.113281 168.210938 C 122.601562 167.050781 121.835938 166.03125 121.277344 164.902344 C 121 163.867188 120.847656 162.792969 120.351562 161.8125 C 120.304688 161.570312 120.265625 161.324219 120.21875 161.082031 C 120.304688 161.191406 120.390625 161.300781 120.472656 161.421875 C 121.398438 162.839844 122.503906 164.136719 123.460938 165.542969 C 124.175781 166.734375 124.886719 167.960938 125.960938 168.867188 C 127.667969 170.195312 127.792969 171.917969 128.792969 173.660156 C 129.46875 175.070312 130.796875 176.023438 131.367188 177.507812 C 132.734375 179.761719 135.0625 181.480469 137.675781 181.960938 C 138.972656 182.40625 140.246094 181.878906 141.429688 181.34375 C 143.214844 180.859375 144.335938 179.375 145.25 177.867188 C 146.679688 176.316406 147.804688 174.507812 148.851562 172.679688 C 149.335938 171.34375 150.492188 170.277344 150.664062 168.828125 Z M 113.988281 155.703125 C 112.816406 155.597656 111.640625 155.570312 110.460938 155.621094 C 109.027344 155.390625 107.601562 155.457031 106.164062 155.570312 C 105.382812 155.53125 104.660156 155.199219 103.894531 155.074219 C 103.011719 154.960938 102.101562 154.96875 101.230469 154.699219 C 99.988281 154.097656 98.417969 154.128906 97.382812 153.1875 C 96.898438 152.582031 96.625 151.824219 96.074219 151.261719 C 95.757812 150.972656 95.480469 150.648438 95.242188 150.292969 C 95.347656 149.824219 95.65625 149.371094 95.839844 148.933594 C 96.089844 148.320312 96.636719 148.03125 97.261719 147.929688 C 98.148438 147.695312 98.890625 147.109375 99.75 146.816406 C 101.253906 146.464844 102.796875 147.148438 104.28125 147.378906 C 106.875 147.632812 106.945312 147.613281 109.070312 149.148438 C 110.148438 149.703125 111.375 149.945312 112.183594 150.925781 C 113.109375 151.886719 114.316406 152.449219 115.347656 153.273438 C 115.828125 153.859375 116.089844 154.585938 116.503906 155.214844 C 116.710938 155.546875 116.9375 155.859375 117.140625 156.183594 C 116.125 155.78125 115.078125 155.621094 113.988281 155.703125 Z M 92.078125 177.902344 C 91.839844 178.007812 91.601562 178.113281 91.367188 178.21875 C 91.289062 178.261719 91.207031 178.308594 91.125 178.351562 C 90.511719 178.347656 89.90625 178.34375 89.304688 178.386719 C 89.003906 178.277344 88.699219 178.199219 88.382812 178.152344 C 88.171875 178.097656 87.957031 178.300781 87.90625 178.511719 C 87.867188 178.5 87.820312 178.507812 87.78125 178.507812 L 87.683594 178.488281 C 87.246094 178.34375 86.941406 177.976562 86.585938 177.707031 C 86.285156 177.449219 85.953125 177.234375 85.589844 177.070312 C 85.082031 176.855469 84.539062 176.695312 84.105469 176.339844 C 83.480469 175.808594 83.105469 175.0625 82.734375 174.34375 C 82.527344 173.992188 82.398438 173.613281 82.347656 173.210938 C 82.789062 173.332031 83.238281 173.4375 83.675781 173.570312 C 84.003906 173.6875 84.34375 173.765625 84.691406 173.804688 C 84.84375 173.816406 84.980469 173.78125 85.109375 173.695312 C 85.238281 173.613281 85.328125 173.5 85.378906 173.355469 C 85.476562 173.15625 85.445312 172.972656 85.285156 172.816406 C 84.828125 172.335938 84.339844 171.882812 83.878906 171.40625 C 83.570312 171.066406 83.523438 170.601562 83.550781 170.164062 C 83.757812 170.359375 83.980469 170.523438 84.226562 170.664062 C 84.765625 171.003906 85.3125 171.351562 85.925781 171.53125 C 86.351562 171.664062 86.785156 171.738281 87.210938 171.84375 C 87.507812 171.945312 87.796875 172.0625 88.09375 172.164062 C 89.324219 172.617188 90.273438 172.113281 91.480469 172.046875 C 92.601562 172.136719 93.753906 172.007812 94.773438 171.507812 C 95.289062 171.292969 95.71875 170.925781 96.226562 170.691406 C 97.210938 170.296875 97.859375 169.882812 98.453125 168.980469 C 98.574219 168.832031 98.71875 168.6875 98.859375 168.546875 C 98.699219 169.121094 98.546875 169.695312 98.390625 170.269531 C 98.324219 170.351562 98.246094 170.429688 98.171875 170.507812 C 97.917969 170.757812 97.703125 171.054688 97.464844 171.324219 C 97.164062 171.632812 96.730469 171.761719 96.394531 172.019531 C 96.023438 172.289062 95.695312 172.617188 95.304688 172.863281 C 94.984375 173.035156 94.613281 173.074219 94.269531 173.1875 C 94.039062 173.261719 93.804688 173.324219 93.570312 173.398438 C 92.960938 173.578125 92.40625 173.828125 91.78125 173.976562 C 91.476562 174.023438 91.167969 174.070312 90.859375 174.109375 C 90.742188 174.121094 90.675781 174.183594 90.65625 174.300781 C 90.65625 174.402344 90.761719 174.441406 90.847656 174.429688 C 91.15625 174.398438 91.464844 174.363281 91.777344 174.328125 C 93.234375 174.328125 93.9375 174.109375 95.171875 173.324219 C 95.660156 173.066406 96.199219 172.921875 96.683594 172.652344 C 97.019531 172.445312 97.316406 172.191406 97.578125 171.894531 L 97.871094 171.652344 C 97.257812 172.664062 96.285156 173.453125 95.636719 174.453125 C 95.582031 174.550781 95.527344 174.644531 95.46875 174.738281 C 95.230469 174.910156 95.003906 175.101562 94.757812 175.257812 C 94.351562 175.582031 93.832031 175.679688 93.339844 175.808594 C 92.863281 175.914062 92.421875 176.195312 91.914062 176.171875 C 91.476562 176.191406 89.191406 175.875 89.703125 176.761719 C 90.773438 177.109375 91.984375 176.75 93.078125 176.613281 C 93.613281 176.480469 94.046875 176.113281 94.527344 175.867188 L 94.617188 175.828125 C 94.089844 176.359375 93.511719 176.824219 92.878906 177.230469 C 92.613281 177.457031 92.355469 177.695312 92.078125 177.902344 Z M 112.121094 162.179688 C 111.726562 162.636719 111.277344 163.035156 110.875 163.480469 C 110.125 164.390625 109.394531 165.347656 108.859375 166.40625 C 108.722656 166.695312 108.59375 166.992188 108.449219 167.28125 C 108.21875 167.757812 108.101562 168.269531 107.890625 168.761719 C 107.613281 169.335938 107.144531 169.78125 106.730469 170.257812 C 106.21875 170.820312 105.746094 171.414062 105.308594 172.039062 C 105.03125 172.4375 104.78125 172.875 104.433594 173.226562 C 104 173.617188 103.519531 173.953125 103.074219 174.328125 C 102.347656 174.878906 101.75 175.65625 100.851562 175.933594 C 100.402344 176.042969 99.941406 176.101562 99.5 176.246094 C 98.835938 176.4375 98.222656 176.757812 97.59375 177.039062 C 97.042969 177.265625 96.460938 177.402344 95.914062 177.613281 C 95.3125 177.839844 94.722656 178.109375 94.105469 178.285156 C 93.824219 178.332031 93.539062 178.351562 93.257812 178.347656 C 93.289062 178.28125 93.3125 178.210938 93.324219 178.132812 C 94.808594 177.40625 95.335938 176.597656 97.203125 174.476562 C 97.90625 173.554688 98.214844 172.429688 98.761719 171.425781 C 99.316406 170.527344 99.929688 169.632812 100.132812 168.578125 C 100.296875 167.363281 101.105469 166.425781 101.742188 165.429688 C 102.789062 163.605469 103.40625 162.78125 105.371094 161.882812 C 106.484375 161.234375 107.679688 160.824219 108.960938 160.664062 C 109.554688 160.644531 110.152344 160.75 110.746094 160.808594 C 110.617188 160.867188 110.488281 160.925781 110.355469 160.96875 C 109.949219 161.078125 109.527344 161.160156 109.15625 161.371094 C 108.699219 161.613281 108.363281 162.019531 107.914062 162.28125 C 107.136719 162.648438 106.410156 163.121094 105.871094 163.800781 C 105.597656 164.105469 105.375 164.460938 105.09375 164.75 C 104.847656 164.984375 104.628906 165.246094 104.445312 165.535156 C 104.40625 165.582031 104.398438 165.632812 104.417969 165.691406 C 104.4375 165.75 104.476562 165.785156 104.535156 165.800781 C 104.671875 165.835938 104.777344 165.796875 104.863281 165.683594 C 105.085938 165.40625 105.269531 165.097656 105.503906 164.828125 C 105.875 164.476562 106.3125 164.21875 106.699219 163.882812 C 107.121094 163.542969 107.457031 163.101562 107.867188 162.753906 C 108.410156 162.300781 109.140625 162.222656 109.753906 161.902344 C 110.066406 161.757812 110.347656 161.550781 110.667969 161.433594 C 111.101562 161.320312 111.53125 161.195312 111.953125 161.054688 C 111.824219 161.1875 111.6875 161.3125 111.542969 161.429688 C 111.183594 161.636719 110.882812 161.914062 110.648438 162.261719 C 110.429688 162.613281 110.089844 162.851562 109.808594 163.152344 C 109.601562 163.367188 109.414062 163.601562 109.25 163.851562 C 109.035156 164.171875 108.878906 164.535156 108.671875 164.863281 C 108.421875 165.1875 108.078125 165.429688 107.839844 165.765625 C 107.648438 166.058594 107.480469 166.363281 107.335938 166.683594 C 107.160156 166.953125 106.980469 167.230469 106.820312 167.515625 C 106.605469 167.863281 106.480469 168.257812 106.203125 168.566406 C 105.957031 168.8125 105.664062 169.011719 105.40625 169.246094 C 105.085938 169.542969 104.847656 169.921875 104.496094 170.191406 C 104.257812 170.386719 104.03125 170.59375 103.796875 170.792969 C 103.734375 170.832031 103.703125 170.886719 103.703125 170.957031 C 103.699219 171.027344 103.722656 171.085938 103.78125 171.132812 C 103.925781 171.210938 104.058594 171.195312 104.179688 171.085938 C 104.503906 170.835938 104.808594 170.570312 105.097656 170.285156 C 105.566406 169.933594 105.957031 169.511719 106.273438 169.015625 C 106.585938 168.472656 107.140625 168.140625 107.453125 167.597656 C 107.667969 167.273438 107.761719 166.886719 107.988281 166.574219 C 108.222656 166.285156 108.425781 165.980469 108.605469 165.660156 C 108.707031 165.417969 108.824219 165.1875 108.949219 164.960938 C 109.175781 164.65625 109.464844 164.402344 109.699219 164.105469 C 110.015625 163.722656 110.242188 163.273438 110.511719 162.855469 C 110.742188 162.542969 111.113281 162.386719 111.410156 162.140625 C 111.636719 161.980469 111.792969 161.738281 112 161.554688 C 112.386719 161.332031 112.742188 161.0625 113.101562 160.800781 C 112.824219 161.171875 112.519531 161.621094 112.121094 162.179688 Z M 128.773438 194.816406 C 128.796875 194.351562 128.886719 193.894531 128.890625 193.433594 C 128.890625 193.183594 128.886719 192.941406 128.871094 192.695312 C 128.832031 189.121094 126.949219 193.109375 125.546875 193.203125 C 126.429688 192.1875 126.761719 190.894531 127.050781 189.617188 C 127.246094 189.082031 127.554688 188.59375 127.691406 188.035156 C 127.804688 187.179688 127.871094 186.316406 127.894531 185.453125 C 127.746094 184.449219 127.355469 183.5 127.226562 182.484375 C 127.59375 182.804688 127.941406 183.144531 128.285156 183.492188 C 128.371094 183.738281 128.472656 183.984375 128.566406 184.226562 C 128.683594 184.605469 128.660156 185 128.71875 185.394531 C 128.757812 185.636719 128.804688 185.867188 128.832031 186.113281 C 128.835938 186.386719 128.753906 186.652344 128.746094 186.929688 C 128.738281 187.105469 128.742188 187.285156 128.75 187.460938 C 128.742188 187.765625 128.617188 188.203125 128.980469 188.332031 C 129.371094 188.394531 129.285156 187.863281 129.324219 187.613281 C 129.390625 187.273438 129.398438 186.925781 129.347656 186.582031 C 129.257812 186.160156 129.367188 185.726562 129.277344 185.304688 C 129.25 185.15625 129.210938 185.011719 129.160156 184.871094 C 129.066406 184.625 128.9375 184.394531 128.851562 184.140625 L 128.839844 184.085938 C 129.160156 184.441406 129.472656 184.804688 129.777344 185.167969 C 129.832031 185.238281 129.886719 185.304688 129.949219 185.367188 C 129.957031 185.441406 129.96875 185.515625 129.984375 185.589844 C 130.078125 186.125 130.128906 186.660156 130.136719 187.203125 C 130.148438 187.890625 129.257812 189.199219 129.945312 189.683594 C 130.636719 189.902344 130.5 187.992188 130.570312 187.570312 C 130.660156 187.03125 130.6875 186.488281 130.652344 185.941406 C 130.734375 186 130.8125 186.058594 130.886719 186.121094 C 130.925781 186.261719 130.980469 186.402344 131.042969 186.535156 C 131.292969 186.976562 131.5 187.4375 131.667969 187.917969 C 131.695312 187.992188 131.742188 188.0625 131.800781 188.117188 C 131.816406 188.785156 131.652344 189.449219 131.445312 190.113281 C 131.148438 191.929688 129.996094 193.496094 128.773438 194.816406 Z M 119.390625 165.355469 C 119.414062 165.675781 119.324219 165.996094 119.367188 166.316406 C 119.394531 166.800781 119.601562 167.25 119.761719 167.699219 C 119.847656 168.035156 119.910156 168.371094 119.945312 168.714844 C 120.011719 169.085938 120.121094 169.445312 120.265625 169.796875 C 120.515625 170.34375 120.910156 170.800781 121.269531 171.277344 C 121.457031 171.578125 121.660156 171.871094 121.875 172.15625 C 121.933594 172.230469 122.042969 172.285156 122.121094 172.203125 C 122.195312 172.101562 122.195312 172 122.121094 171.902344 C 121.917969 171.578125 121.65625 171.289062 121.472656 170.953125 C 121.152344 170.285156 120.917969 169.578125 120.585938 168.914062 C 120.410156 168.492188 120.167969 168.097656 120.089844 167.644531 C 120.019531 167.089844 120.082031 166.53125 119.953125 165.988281 C 119.847656 165.628906 119.890625 165.261719 119.898438 164.898438 C 119.984375 165.242188 120.113281 165.570312 120.285156 165.882812 C 120.5625 166.507812 120.585938 167.222656 120.902344 167.851562 C 121.074219 168.257812 121.335938 168.609375 121.523438 169.011719 C 121.6875 169.378906 121.753906 169.785156 121.945312 170.140625 C 122.09375 170.453125 122.328125 170.710938 122.484375 171.019531 C 122.722656 171.492188 123.035156 171.914062 123.421875 172.277344 C 123.640625 172.566406 123.757812 172.914062 123.976562 173.199219 C 124.234375 173.550781 124.5625 173.84375 124.800781 174.214844 C 125.089844 174.605469 125.449219 174.9375 125.761719 175.304688 C 125.792969 175.347656 125.835938 175.371094 125.890625 175.371094 C 125.941406 175.371094 125.984375 175.351562 126.015625 175.308594 C 126.082031 175.191406 126.070312 175.082031 125.980469 174.984375 C 125.828125 174.800781 125.675781 174.621094 125.523438 174.4375 C 125.277344 174.101562 125.011719 173.78125 124.730469 173.472656 C 124.546875 173.179688 124.335938 172.90625 124.105469 172.648438 C 123.914062 172.484375 123.742188 172.296875 123.589844 172.09375 C 123.457031 171.84375 123.34375 171.589844 123.199219 171.34375 C 123.042969 171.078125 122.847656 170.835938 122.695312 170.574219 C 122.507812 170.054688 122.246094 169.578125 121.910156 169.136719 C 121.625 168.738281 121.578125 168.226562 121.417969 167.773438 C 121.242188 167.265625 121.023438 166.777344 120.761719 166.308594 C 120.707031 166.191406 120.667969 166.070312 120.640625 165.949219 C 120.585938 165.625 120.597656 165.296875 120.53125 164.976562 C 120.472656 164.589844 120.277344 164.242188 120.21875 163.855469 C 120.222656 163.824219 120.21875 163.792969 120.214844 163.757812 C 120.265625 163.867188 120.316406 163.980469 120.371094 164.089844 C 121.273438 165.652344 121.382812 167.585938 122.632812 168.96875 C 123.496094 169.835938 124.035156 170.910156 124.726562 171.902344 C 125.117188 172.433594 125.640625 172.8125 126.144531 173.242188 C 126.820312 173.980469 127.421875 174.792969 128.238281 175.394531 C 129.507812 176.066406 129.917969 177.425781 130.539062 178.625 C 131.527344 180.058594 131.804688 181.785156 132.261719 183.433594 C 132.457031 183.914062 132.222656 185.363281 132.164062 186.488281 C 132.058594 185.902344 131.859375 185.324219 131.359375 184.964844 C 130.964844 184.621094 130.53125 184.324219 130.164062 183.953125 C 129.703125 183.476562 129.277344 182.960938 128.738281 182.574219 C 128.0625 181.988281 127.46875 181.277344 126.65625 180.867188 C 126.34375 180.71875 126.015625 180.605469 125.742188 180.386719 C 125.175781 179.902344 124.828125 179.230469 124.363281 178.660156 C 124.089844 178.304688 123.765625 177.984375 123.46875 177.644531 C 122.976562 176.90625 122.4375 176.203125 121.847656 175.539062 C 121.628906 175.257812 121.464844 174.949219 121.359375 174.609375 C 121.179688 174.019531 120.957031 173.445312 120.695312 172.886719 C 120.476562 172.460938 120.410156 171.992188 120.3125 171.53125 C 120.171875 170.910156 119.863281 170.347656 119.671875 169.742188 C 119.542969 169.078125 119.578125 168.398438 119.484375 167.738281 C 119.445312 167.457031 119.394531 167.179688 119.359375 166.898438 C 119.308594 166.554688 119.277344 166.210938 119.261719 165.867188 C 119.28125 165.640625 119.316406 165.421875 119.375 165.203125 Z M 138.273438 181.207031 L 138.113281 181.195312 C 137.992188 181.175781 137.871094 181.148438 137.75 181.113281 C 134.921875 179.859375 135.546875 180.414062 133.492188 178.183594 C 131.402344 176.316406 131.777344 175.914062 130.832031 173.664062 C 130.5 173.042969 129.96875 172.5625 129.53125 172.019531 C 128.828125 171.042969 128.292969 169.976562 127.929688 168.828125 C 127.347656 166.578125 126.175781 165.847656 124.574219 164.390625 C 123.636719 163.410156 123.21875 162.082031 122.402344 161.015625 C 121.816406 160.292969 121.167969 159.613281 120.550781 158.910156 C 121.734375 159.226562 122.707031 160.09375 123.941406 160.257812 C 125.394531 160.527344 126.921875 160.5 128.320312 161.027344 C 129.386719 161.570312 130.1875 162.496094 131.160156 163.183594 C 132.695312 164.285156 134.726562 165.015625 135.582031 166.8125 C 136.128906 167.941406 136.542969 169.140625 137.304688 170.144531 C 138.078125 171.070312 138.34375 172.246094 138.707031 173.367188 C 139.160156 174.597656 140.015625 175.679688 140.070312 177.039062 C 140.082031 178.546875 139.328125 180.148438 138.273438 181.199219 Z M 138.273438 181.207031 " fill-opacity="1" fill-rule="nonzero"/></g></g></g><g clip-path="url(#2e558b4629)"><g clip-path="url(#48975c136c)"><g clip-path="url(#36f1ff2a4a)"><path fill="#fbf6f0" d="M 129.339844 211.074219 C 128.9375 210.539062 129.722656 209.9375 130.015625 209.53125 C 130.234375 209.136719 130.410156 208.722656 130.546875 208.292969 C 130.816406 207.414062 131.253906 206.601562 131.5625 205.738281 C 131.65625 204.78125 131.765625 203.8125 131.832031 202.859375 C 131.859375 202.023438 131.433594 201.320312 131.082031 200.59375 C 130.726562 199.582031 130.195312 198.675781 129.484375 197.875 C 129.230469 197.578125 128.9375 197.292969 128.8125 196.914062 C 128.546875 196.328125 129.066406 195.300781 129.765625 195.761719 C 131.269531 197.050781 131.933594 199.054688 132.371094 200.929688 C 132.511719 202.066406 132.804688 203.214844 132.714844 204.363281 C 132.617188 205.226562 132.246094 206.027344 132.195312 206.898438 C 132.09375 207.839844 131.496094 208.574219 130.886719 209.257812 C 130.539062 209.625 129.972656 211.695312 129.339844 211.074219 Z M 129.339844 211.074219 " fill-opacity="1" fill-rule="nonzero"/></g></g></g><g clip-path="url(#bda1d9a45b)"><g clip-path="url(#744cb403c8)"><g clip-path="url(#65f4cf2224)"><path fill="#fbf6f0" d="M 120.800781 198.015625 C 120.042969 197.757812 119.269531 197.558594 118.476562 197.421875 C 118.050781 197.296875 117.746094 196.933594 117.371094 196.695312 C 117.183594 196.566406 116.964844 196.449219 116.855469 196.238281 C 116.746094 196.03125 116.816406 195.675781 117.074219 195.644531 C 117.492188 195.671875 117.8125 196.046875 118.164062 196.257812 C 118.929688 196.800781 119.882812 197.105469 120.816406 196.894531 C 121.222656 196.890625 121.671875 196.929688 121.707031 197.433594 C 121.761719 198.03125 121.261719 198.082031 120.800781 198.015625 Z M 120.800781 198.015625 " fill-opacity="1" fill-rule="nonzero"/></g></g></g><g clip-path="url(#27650730b9)"><g clip-path="url(#d88f58faf6)"><g clip-path="url(#bd063d8d11)"><path fill="#fbf6f0" d="M 123.25 197.984375 C 122.96875 197.726562 123.0625 197.160156 123.472656 197.101562 C 123.789062 196.988281 124.15625 196.910156 124.277344 197.320312 C 124.359375 197.550781 124.300781 197.90625 124.035156 197.996094 C 123.78125 198.03125 123.464844 198.191406 123.25 197.984375 Z M 123.25 197.984375 " fill-opacity="1" fill-rule="nonzero"/></g></g></g><g clip-path="url(#22fa29f736)"><g clip-path="url(#6f8de7f031)"><g clip-path="url(#7fbebd7840)"><path fill="#fbf6f0" d="M 107.976562 204.476562 C 107.703125 202.917969 108.011719 201.207031 108.679688 199.773438 C 109.101562 198.898438 109.929688 198.359375 110.605469 197.695312 C 111.035156 197.1875 111.550781 196.792969 112.148438 196.511719 C 112.601562 196.347656 113.152344 195.675781 113.621094 196.082031 C 113.734375 196.132812 113.804688 196.21875 113.824219 196.339844 C 113.855469 196.492188 113.800781 196.730469 113.617188 196.753906 C 112.539062 197.609375 111.207031 198.21875 110.332031 199.277344 C 109.921875 199.867188 109.839844 200.601562 109.5625 201.253906 C 108.703125 203.070312 109.058594 202.558594 109.105469 204.367188 C 109.097656 205.203125 108.140625 205.296875 107.976562 204.476562 Z M 107.976562 204.476562 " fill-opacity="1" fill-rule="nonzero"/></g></g></g><g clip-path="url(#c666c8e5b5)"><g clip-path="url(#f4f4957c15)"><g clip-path="url(#8135c5fc86)"><path fill="#fbf6f0" d="M 109.734375 208.730469 C 109.363281 208.546875 108.832031 206.957031 108.941406 206.550781 C 109.023438 206.082031 109.542969 206.332031 109.46875 206.71875 C 109.542969 207.210938 109.789062 207.664062 110.019531 208.089844 C 110.171875 208.328125 110.082031 208.800781 109.734375 208.730469 Z M 109.734375 208.730469 " fill-opacity="1" fill-rule="nonzero"/></g></g></g></svg>